# xmcd CD database file
#
# Track frame offsets:
#	150
#	3739
#	24044
#	43903
#	61908
#	79183
#	97501
#	117744
#	136640
#	154991
#	176133
#	178231
#	193944
#
# Disc length: 2797 seconds
#
# Revision: 0
# Processed by: cddbd v1.5.2PL0 Copyright (c) Steve Scherf et al.
# Submitted via: CDex 1.70beta2
#
DISCID=aa0aeb0d
DTITLE=Flow Dynamics - Flow Dynamics
DYEAR=2008
DGENRE=Jazz
TTITLE0=Introduction
TTITLE1=Live In The Mix
TTITLE2=Shock Ya Mind
TTITLE3=Superjam
TTITLE4=Up In The Party
TTITLE5=Tremendo Boogaloo
TTITLE6=At The Speakeasy
TTITLE7=Just Expressin
TTITLE8=Better On Stage
TTITLE9=C'mon and Get It
TTITLE10=Cut Edit
TTITLE11=Straight From The Ground
TTITLE12=Steady Rockin
EXTD=YEAR: 2008
EXTT0=
EXTT1=
EXTT2=
EXTT3=
EXTT4=
EXTT5=
EXTT6=
EXTT7=
EXTT8=
EXTT9=
EXTT10=
EXTT11=
EXTT12=
PLAYORDER=
